<svg width="1440" height="448" viewBox="0 0 1440 448" fill="none" xmlns="http://www.w3.org/2000/svg"><path d="M29.9607 40.5287H26.3128V504.944H29.9607V40.5287Z" fill="url(#paint0_linear_1:9699)"/><path d="M24.0146 40.7474C24.0146 38.4857 25.875 36.6252 28.1367 36.6252C30.3984 36.6252 32.2589 38.4857 32.2589 40.7474C32.2589 43.0091 30.3984 44.8695 28.1367 44.8695C25.875 44.833 24.0146 43.0091 24.0146 40.7474Z" fill="url(#paint1_linear_1:9699)"/><path d="M55.8609 99.7706H52.213V445.739H55.8609V99.7706Z" fill="url(#paint2_linear_1:9699)"/><path d="M49.9513 99.9528C49.9513 97.6911 51.8117 95.8307 54.0734 95.8307C56.3351 95.8307 58.1956 97.6911 58.1956 99.9528C58.1956 102.215 56.3716 104.075 54.0734 104.075C51.7752 104.075 49.9513 102.215 49.9513 99.9528Z" fill="url(#paint3_linear_1:9699)"/><path d="M41.707 43.7385H38.0591V501.77H41.707V43.7385Z" fill="url(#paint4_linear_1:9699)"/><path d="M35.7609 43.9206C35.7609 41.6589 37.6213 39.7985 39.883 39.7985C42.1447 39.7985 44.0052 41.6589 44.0052 43.9206C44.0052 46.1823 42.1447 48.0428 39.883 48.0428C37.5848 48.0428 35.7609 46.2188 35.7609 43.9206Z" fill="url(#paint5_linear_1:9699)"/><path d="M113.316 102.907H109.668V442.601H113.316V102.907Z" fill="url(#paint6_linear_1:9699)"/><path d="M107.369 103.09C107.369 100.828 109.23 98.9674 111.492 98.9674C113.753 98.9674 115.614 100.828 115.614 103.09C115.614 105.351 113.753 107.212 111.492 107.212C109.23 107.212 107.369 105.388 107.369 103.09Z" fill="url(#paint7_linear_1:9699)"/><path d="M174.929 72.8488H171.281V472.66H174.929V72.8488Z" fill="url(#paint8_linear_1:9699)"/><path d="M168.983 73.0308C168.983 70.7691 170.843 68.9087 173.105 68.9087C175.367 68.9087 177.227 70.7691 177.227 73.0308C177.227 75.2925 175.367 77.153 173.105 77.153C170.843 77.153 168.983 75.329 168.983 73.0308Z" fill="url(#paint9_linear_1:9699)"/><path d="M101.496 35.8593H97.8483V509.614H101.496V35.8593Z" fill="url(#paint10_linear_1:9699)"/><path d="M95.5502 36.0779C95.5502 33.8162 97.4106 31.9558 99.6723 31.9558C101.934 31.9558 103.794 33.8162 103.794 36.0779C103.794 38.3397 101.934 40.2001 99.6723 40.2001C97.4106 40.1636 95.5502 38.3397 95.5502 36.0779Z" fill="url(#paint11_linear_1:9699)"/><path d="M123.347 68.5443H119.699V476.965H123.347V68.5443Z" fill="url(#paint12_linear_1:9699)"/><path d="M117.401 68.7265C117.401 66.4648 119.262 64.6044 121.523 64.6044C123.785 64.6044 125.645 66.4648 125.645 68.7265C125.645 70.9882 123.785 72.8487 121.523 72.8487C119.262 72.8487 117.401 71.0247 117.401 68.7265Z" fill="url(#paint13_linear_1:9699)"/><path d="M218.558 112.502H214.91V432.971H218.558V112.502Z" fill="url(#paint14_linear_1:9699)"/><path d="M212.648 112.721C212.648 110.459 214.509 108.598 216.77 108.598C219.032 108.598 220.892 110.459 220.892 112.721C220.892 114.982 219.032 116.843 216.77 116.843C214.472 116.806 212.648 114.982 212.648 112.721Z" fill="url(#paint15_linear_1:9699)"/><path d="M200.501 113.888H196.853V431.584H200.501V113.888Z" fill="url(#paint16_linear_1:9699)"/><path d="M198.677 118.229C200.953 118.229 202.799 116.383 202.799 114.106C202.799 111.83 200.953 109.984 198.677 109.984C196.4 109.984 194.555 111.83 194.555 114.106C194.555 116.383 196.4 118.229 198.677 118.229Z" fill="url(#paint17_linear_1:9699)"/><path d="M296.368 75.2935H292.72V470.18H296.368V75.2935Z" fill="url(#paint18_linear_1:9699)"/><path d="M290.422 75.512C290.422 73.2503 292.282 71.3899 294.544 71.3899C296.805 71.3899 298.666 73.2503 298.666 75.512C298.666 77.7737 296.805 79.6342 294.544 79.6342C292.246 79.5977 290.422 77.7737 290.422 75.512Z" fill="url(#paint19_linear_1:9699)"/><path d="M308.479 99.5516H304.831V445.884H308.479V99.5516Z" fill="url(#paint20_linear_1:9699)"/><path d="M302.569 99.7703C302.569 97.5086 304.43 95.6482 306.691 95.6482C308.953 95.6482 310.813 97.5086 310.813 99.7703C310.813 102.032 308.953 103.892 306.691 103.892C304.393 103.892 302.569 102.032 302.569 99.7703Z" fill="url(#paint21_linear_1:9699)"/><path d="M256.533 65.5895H252.885V479.883H256.533V65.5895Z" fill="url(#paint22_linear_1:9699)"/><path d="M250.586 65.8081C250.586 63.5464 252.447 61.6859 254.709 61.6859C256.97 61.6859 258.831 63.5464 258.831 65.8081C258.831 68.0698 256.97 69.9302 254.709 69.9302C252.447 69.9302 250.586 68.0698 250.586 65.8081Z" fill="url(#paint23_linear_1:9699)"/><path d="M368.268 3.94006H364.62V541.569H368.268V3.94006Z" fill="url(#paint24_linear_1:9699)"/><path d="M362.322 4.12214C362.322 1.86044 364.182 0 366.444 0C368.706 0 370.566 1.86044 370.566 4.12214C370.566 6.38385 368.706 8.24428 366.444 8.24428C364.182 8.24428 362.322 6.38385 362.322 4.12214Z" fill="url(#paint25_linear_1:9699)"/><path d="M380.999 34.1084H377.351V511.365H380.999V34.1084Z" fill="url(#paint26_linear_1:9699)"/><path d="M375.053 34.327C375.053 32.0653 376.914 30.2048 379.175 30.2048C381.437 30.2048 383.297 32.0653 383.297 34.327C383.297 36.5887 381.437 38.4491 379.175 38.4491C376.877 38.4126 375.053 36.5887 375.053 34.327Z" fill="url(#paint27_linear_1:9699)"/><path d="M412.59 18.5319H408.942V526.978H412.59V18.5319Z" fill="url(#paint28_linear_1:9699)"/><path d="M406.644 18.7138C406.644 16.4521 408.505 14.5917 410.766 14.5917C413.028 14.5917 414.888 16.4521 414.888 18.7138C414.888 20.9755 413.028 22.836 410.766 22.836C408.468 22.836 406.644 21.012 406.644 18.7138Z" fill="url(#paint29_linear_1:9699)"/><path d="M403.215 32.1017H399.567V513.407H403.215V32.1017Z" fill="url(#paint30_linear_1:9699)"/><path d="M397.269 32.2839C397.269 30.0222 399.129 28.1617 401.391 28.1617C403.653 28.1617 405.513 30.0222 405.513 32.2839C405.513 34.5456 403.653 36.406 401.391 36.406C399.129 36.406 397.269 34.5821 397.269 32.2839Z" fill="url(#paint31_linear_1:9699)"/><path d="M385.304 77.3719H381.656V468.136H385.304V77.3719Z" fill="url(#paint32_linear_1:9699)"/><path d="M379.358 77.5542C379.358 75.2924 381.218 73.432 383.48 73.432C385.742 73.432 387.602 75.2924 387.602 77.5542C387.602 79.8159 385.742 81.6763 383.48 81.6763C381.182 81.6763 379.358 79.8523 379.358 77.5542Z" fill="url(#paint33_linear_1:9699)"/><path d="M416.968 39.1421H413.32V506.33H416.968V39.1421Z" fill="url(#paint34_linear_1:9699)"/><path d="M415.144 43.4828C417.42 43.4828 419.266 41.6373 419.266 39.3607C419.266 37.0841 417.42 35.2385 415.144 35.2385C412.867 35.2385 411.022 37.0841 411.022 39.3607C411.022 41.6373 412.867 43.4828 415.144 43.4828Z" fill="url(#paint35_linear_1:9699)"/><path d="M425.212 104.731H421.564V440.741H425.212V104.731Z" fill="url(#paint36_linear_1:9699)"/><path d="M419.266 104.95C419.266 102.688 421.126 100.828 423.388 100.828C425.65 100.828 427.51 102.688 427.51 104.95C427.51 107.212 425.65 109.072 423.388 109.072C421.09 109.072 419.266 107.212 419.266 104.95Z" fill="url(#paint37_linear_1:9699)"/><path d="M502.584 63.109H498.936V482.364H502.584V63.109Z" fill="url(#paint38_linear_1:9699)"/><path d="M496.638 63.3277C496.638 61.066 498.499 59.2056 500.76 59.2056C503.022 59.2056 504.882 61.066 504.882 63.3277C504.882 65.5894 503.022 67.4499 500.76 67.4499C498.499 67.4499 496.638 65.5894 496.638 63.3277Z" fill="url(#paint39_linear_1:9699)"/><path d="M525.858 111.919H522.21V433.555H525.858V111.919Z" fill="url(#paint40_linear_1:9699)"/><path d="M519.912 112.137C519.912 109.876 521.772 108.015 524.034 108.015C526.296 108.015 528.156 109.876 528.156 112.137C528.156 114.399 526.296 116.259 524.034 116.259C521.772 116.223 519.912 114.399 519.912 112.137Z" fill="url(#paint41_linear_1:9699)"/><path d="M556.354 105.279H552.706V440.23H556.354V105.279Z" fill="url(#paint42_linear_1:9699)"/><path d="M554.53 109.583C556.807 109.583 558.653 107.738 558.653 105.461C558.653 103.185 556.807 101.339 554.53 101.339C552.254 101.339 550.408 103.185 550.408 105.461C550.408 107.738 552.254 109.583 554.53 109.583Z" fill="url(#paint43_linear_1:9699)"/><path d="M605.273 50.9613H601.625V494.511H605.273V50.9613Z" fill="url(#paint44_linear_1:9699)"/><path d="M599.327 51.1799C599.327 48.9182 601.151 47.0577 603.449 47.0577C605.711 47.0577 607.571 48.9182 607.571 51.1799C607.571 53.4416 605.711 55.302 603.449 55.302C601.187 55.2655 599.327 53.4416 599.327 51.1799Z" fill="url(#paint45_linear_1:9699)"/><path d="M651.383 5.36243H647.735V540.11H651.383V5.36243Z" fill="url(#paint46_linear_1:9699)"/><path d="M649.559 9.70314C651.835 9.70314 653.681 7.8576 653.681 5.58101C653.681 3.30441 651.835 1.45886 649.559 1.45886C647.282 1.45886 645.436 3.30441 645.436 5.58101C645.436 7.8576 647.282 9.70314 649.559 9.70314Z" fill="url(#paint47_linear_1:9699)"/><path d="M662.545 69.1643H658.897V476.308H662.545V69.1643Z" fill="url(#paint48_linear_1:9699)"/><path d="M656.599 69.3829C656.599 67.1212 658.459 65.2607 660.721 65.2607C662.983 65.2607 664.843 67.1212 664.843 69.3829C664.843 71.6446 662.983 73.505 660.721 73.505C658.459 73.4686 656.599 71.6446 656.599 69.3829Z" fill="url(#paint49_linear_1:9699)"/><path d="M672.686 36.7347H669.038V508.775H672.686V36.7347Z" fill="url(#paint50_linear_1:9699)"/><path d="M666.777 36.9168C666.777 34.6551 668.637 32.7947 670.899 32.7947C673.161 32.7947 675.021 34.6186 675.021 36.9168C675.021 39.1785 673.161 41.039 670.899 41.039C668.601 41.039 666.777 39.215 666.777 36.9168Z" fill="url(#paint51_linear_1:9699)"/><path d="M679.471 96.4515H675.824V449.059H679.471V96.4515Z" fill="url(#paint52_linear_1:9699)"/><path d="M673.525 96.6336C673.525 94.3719 675.386 92.5115 677.648 92.5115C679.909 92.5115 681.77 94.3719 681.77 96.6336C681.77 98.8953 679.909 100.756 677.648 100.756C675.386 100.756 673.525 98.9318 673.525 96.6336Z" fill="url(#paint53_linear_1:9699)"/><path d="M738.093 11.674H734.445V533.836H738.093V11.674Z" fill="url(#paint54_linear_1:9699)"/><path d="M736.269 15.9783C738.546 15.9783 740.392 14.1327 740.392 11.8561C740.392 9.57955 738.546 7.73401 736.269 7.73401C733.993 7.73401 732.147 9.57955 732.147 11.8561C732.147 14.1327 733.993 15.9783 736.269 15.9783Z" fill="url(#paint55_linear_1:9699)"/><path d="M749.913 83.829H746.265V461.68H749.913V83.829Z" fill="url(#paint56_linear_1:9699)"/><path d="M743.967 84.011C743.967 81.7493 745.827 79.8889 748.089 79.8889C750.35 79.8889 752.211 81.7493 752.211 84.011C752.211 86.2728 750.35 88.1332 748.089 88.1332C745.791 88.1332 743.967 86.2728 743.967 84.011Z" fill="url(#paint57_linear_1:9699)"/><path d="M796.132 109.583H792.484V435.926H796.132V109.583Z" fill="url(#paint58_linear_1:9699)"/><path d="M790.186 109.766C790.186 107.504 792.046 105.643 794.308 105.643C796.569 105.643 798.43 107.504 798.43 109.766C798.43 112.027 796.569 113.888 794.308 113.888C792.046 113.888 790.186 112.064 790.186 109.766Z" fill="url(#paint59_linear_1:9699)"/><path d="M751.153 5.3988H747.505V540.073H751.153V5.3988Z" fill="url(#paint60_linear_1:9699)"/><path d="M749.329 9.73964C751.606 9.73964 753.451 7.8941 753.451 5.61751C753.451 3.34091 751.606 1.49536 749.329 1.49536C747.052 1.49536 745.207 3.34091 745.207 5.61751C745.207 7.8941 747.052 9.73964 749.329 9.73964Z" fill="url(#paint61_linear_1:9699)"/><path d="M810.723 59.2054H807.075V486.303H810.723V59.2054Z" fill="url(#paint62_linear_1:9699)"/><path d="M808.899 63.5098C811.176 63.5098 813.022 61.6642 813.022 59.3876C813.022 57.111 811.176 55.2655 808.899 55.2655C806.623 55.2655 804.777 57.111 804.777 59.3876C804.777 61.6642 806.623 63.5098 808.899 63.5098Z" fill="url(#paint63_linear_1:9699)"/><path d="M865.916 52.7487H862.268V492.76H865.916V52.7487Z" fill="url(#paint64_linear_1:9699)"/><path d="M859.97 52.9307C859.97 50.669 861.831 48.8086 864.092 48.8086C866.354 48.8086 868.214 50.669 868.214 52.9307C868.214 55.1924 866.354 57.0529 864.092 57.0529C861.831 57.0529 859.97 55.2289 859.97 52.9307Z" fill="url(#paint65_linear_1:9699)"/><path d="M897.033 31.1533H893.385V514.283H897.033V31.1533Z" fill="url(#paint66_linear_1:9699)"/><path d="M891.123 31.3719C891.123 29.1102 892.984 27.2498 895.245 27.2498C897.507 27.2498 899.368 29.1102 899.368 31.3719C899.368 33.6336 897.507 35.494 895.245 35.494C892.947 35.494 891.123 33.6336 891.123 31.3719Z" fill="url(#paint67_linear_1:9699)"/><path d="M826.409 19.2976H822.761V526.138H826.409V19.2976Z" fill="url(#paint68_linear_1:9699)"/><path d="M820.463 19.5162C820.463 17.2545 822.324 15.394 824.585 15.394C826.847 15.394 828.707 17.2545 828.707 19.5162C828.707 21.7779 826.847 23.6383 824.585 23.6383C822.324 23.6383 820.463 21.7779 820.463 19.5162Z" fill="url(#paint69_linear_1:9699)"/><path d="M898.456 111.152H894.808V434.284H898.456V111.152Z" fill="url(#paint70_linear_1:9699)"/><path d="M892.546 111.37C892.546 109.109 894.406 107.248 896.668 107.248C898.93 107.248 900.79 109.109 900.79 111.37C900.79 113.632 898.93 115.493 896.668 115.493C894.37 115.493 892.546 113.632 892.546 111.37Z" fill="url(#paint71_linear_1:9699)"/><path d="M887.585 81.7137H883.937V463.76H887.585V81.7137Z" fill="url(#paint72_linear_1:9699)"/><path d="M881.675 81.9324C881.675 79.6707 883.536 77.8103 885.797 77.8103C888.059 77.8103 889.919 79.6707 889.919 81.9324C889.919 84.1941 888.059 86.0546 885.797 86.0546C883.499 86.0181 881.675 84.1941 881.675 81.9324Z" fill="url(#paint73_linear_1:9699)"/><path d="M961.2 17.7657H957.552V527.671H961.2V17.7657Z" fill="url(#paint74_linear_1:9699)"/><path d="M955.29 17.9844C955.29 15.7227 957.15 13.8623 959.412 13.8623C961.674 13.8623 963.534 15.7227 963.534 17.9844C963.534 20.2461 961.674 22.1066 959.412 22.1066C957.114 22.1066 955.29 20.2461 955.29 17.9844Z" fill="url(#paint75_linear_1:9699)"/><path d="M925.012 115.384H921.365V430.126H925.012V115.384Z" fill="url(#paint76_linear_1:9699)"/><path d="M919.066 115.566C919.066 113.304 920.927 111.444 923.188 111.444C925.45 111.444 927.31 113.304 927.31 115.566C927.31 117.828 925.45 119.688 923.188 119.688C920.927 119.688 919.066 117.864 919.066 115.566Z" fill="url(#paint77_linear_1:9699)"/><path d="M989.617 79.415H985.969V466.057H989.617V79.415Z" fill="url(#paint78_linear_1:9699)"/><path d="M983.671 79.6337C983.671 77.372 985.531 75.5116 987.793 75.5116C990.055 75.5116 991.915 77.372 991.915 79.6337C991.915 81.8954 990.055 83.7559 987.793 83.7559C985.531 83.7559 983.671 81.8954 983.671 79.6337Z" fill="url(#paint79_linear_1:9699)"/><path d="M996.694 86.3102H993.046V459.2H996.694V86.3102Z" fill="url(#paint80_linear_1:9699)"/><path d="M990.784 86.4922C990.784 84.2305 992.645 82.3701 994.906 82.3701C997.168 82.3701 999.029 84.2305 999.029 86.4922C999.029 88.754 997.168 90.6144 994.906 90.6144C992.608 90.6144 990.784 88.7904 990.784 86.4922Z" fill="url(#paint81_linear_1:9699)"/><path d="M1072.75 35.9323H1069.1V509.541H1072.75V35.9323Z" fill="url(#paint82_linear_1:9699)"/><path d="M1070.93 40.2731C1073.21 40.2731 1075.05 38.4275 1075.05 36.151C1075.05 33.8744 1073.21 32.0288 1070.93 32.0288C1068.65 32.0288 1066.81 33.8744 1066.81 36.151C1066.81 38.4275 1068.65 40.2731 1070.93 40.2731Z" fill="url(#paint83_linear_1:9699)"/><path d="M1027.23 7.36877H1023.58V538.14H1027.23V7.36877Z" fill="url(#paint84_linear_1:9699)"/><path d="M1021.28 7.55097C1021.28 5.28927 1023.14 3.42883 1025.4 3.42883C1027.66 3.42883 1029.53 5.28927 1029.53 7.55097C1029.53 9.81268 1027.66 11.6731 1025.4 11.6731C1023.14 11.6731 1021.28 9.84915 1021.28 7.55097Z" fill="url(#paint85_linear_1:9699)"/><path d="M1069.1 14.7744H1065.46V530.699H1069.1V14.7744Z" fill="url(#paint86_linear_1:9699)"/><path d="M1063.16 14.9929C1063.16 12.7312 1065.02 10.8707 1067.28 10.8707C1069.54 10.8707 1071.4 12.7312 1071.4 14.9929C1071.4 17.2546 1069.54 19.115 1067.28 19.115C1065.02 19.115 1063.16 17.2546 1063.16 14.9929Z" fill="url(#paint87_linear_1:9699)"/><path d="M1173.4 46.4014H1169.75V499.071H1173.4V46.4014Z" fill="url(#paint88_linear_1:9699)"/><path d="M1167.45 46.6199C1167.45 44.3582 1169.31 42.4978 1171.57 42.4978C1173.84 42.4978 1175.7 44.3582 1175.7 46.6199C1175.7 48.8816 1173.84 50.7421 1171.57 50.7421C1169.31 50.7056 1167.45 48.8816 1167.45 46.6199Z" fill="url(#paint89_linear_1:9699)"/><path d="M1168.95 81.6406H1165.3V463.832H1168.95V81.6406Z" fill="url(#paint90_linear_1:9699)"/><path d="M1163.04 81.8593C1163.04 79.5976 1164.9 77.7372 1167.16 77.7372C1169.42 77.7372 1171.28 79.5976 1171.28 81.8593C1171.28 84.121 1169.42 85.9815 1167.16 85.9815C1164.9 85.9815 1163.04 84.121 1163.04 81.8593Z" fill="url(#paint91_linear_1:9699)"/><path d="M1226.15 89.1912H1222.5V456.281H1226.15V89.1912Z" fill="url(#paint92_linear_1:9699)"/><path d="M1220.2 89.4099C1220.2 87.1482 1222.03 85.2877 1224.32 85.2877C1226.59 85.2877 1228.45 87.1482 1228.45 89.4099C1228.45 91.6716 1226.59 93.532 1224.32 93.532C1222.06 93.532 1220.2 91.6716 1220.2 89.4099Z" fill="url(#paint93_linear_1:9699)"/><path d="M1172.45 45.599H1168.8V499.873H1172.45V45.599Z" fill="url(#paint94_linear_1:9699)"/><path d="M1166.5 45.8176C1166.5 43.5559 1168.36 41.6954 1170.63 41.6954C1172.89 41.6954 1174.75 43.5559 1174.75 45.8176C1174.75 48.0793 1172.89 49.9397 1170.63 49.9397C1168.36 49.9397 1166.5 48.0793 1166.5 45.8176Z" fill="url(#paint95_linear_1:9699)"/><path d="M1193.61 57.0538H1189.96V488.383H1193.61V57.0538Z" fill="url(#paint96_linear_1:9699)"/><path d="M1187.66 57.2725C1187.66 55.0108 1189.52 53.1504 1191.78 53.1504C1194.05 53.1504 1195.91 54.9744 1195.91 57.2725C1195.91 59.5342 1194.05 61.3947 1191.78 61.3947C1189.49 61.3947 1187.66 59.5342 1187.66 57.2725Z" fill="url(#paint97_linear_1:9699)"/><path d="M1249.71 81.3485H1246.07V464.16H1249.71V81.3485Z" fill="url(#paint98_linear_1:9699)"/><path d="M1243.77 81.5307C1243.77 79.269 1245.63 77.4086 1247.89 77.4086C1250.15 77.4086 1252.01 79.269 1252.01 81.5307C1252.01 83.7924 1250.15 85.6528 1247.89 85.6528C1245.59 85.6528 1243.77 83.8289 1243.77 81.5307Z" fill="url(#paint99_linear_1:9699)"/><path d="M1229.39 76.5696H1225.75V468.903H1229.39V76.5696Z" fill="url(#paint100_linear_1:9699)"/><path d="M1223.45 76.7883C1223.45 74.5266 1225.31 72.6661 1227.57 72.6661C1229.83 72.6661 1231.69 74.5266 1231.69 76.7883C1231.69 79.05 1229.83 80.9104 1227.57 80.9104C1225.31 80.8739 1223.45 79.05 1223.45 76.7883Z" fill="url(#paint101_linear_1:9699)"/><path d="M1253.4 7.77063H1249.75V537.703H1253.4V7.77063Z" fill="url(#paint102_linear_1:9699)"/><path d="M1247.45 7.9892C1247.45 5.7275 1249.31 3.86707 1251.57 3.86707C1253.84 3.86707 1255.7 5.7275 1255.7 7.9892C1255.7 10.2509 1253.84 12.1113 1251.57 12.1113C1249.31 12.0749 1247.45 10.2509 1247.45 7.9892Z" fill="url(#paint103_linear_1:9699)"/><path d="M1312.86 103.892H1309.21V441.616H1312.86V103.892Z" fill="url(#paint104_linear_1:9699)"/><path d="M1306.91 104.075C1306.91 101.813 1308.77 99.9524 1311.03 99.9524C1313.3 99.9524 1315.16 101.813 1315.16 104.075C1315.16 106.336 1313.3 108.197 1311.03 108.197C1308.74 108.197 1306.91 106.373 1306.91 104.075Z" fill="url(#paint105_linear_1:9699)"/><path d="M1384.72 112.976H1381.07V432.496H1384.72V112.976Z" fill="url(#paint106_linear_1:9699)"/><path d="M1378.81 113.194C1378.81 110.933 1380.67 109.072 1382.93 109.072C1385.2 109.072 1387.06 110.933 1387.06 113.194C1387.06 115.456 1385.2 117.317 1382.93 117.317C1380.64 117.28 1378.81 115.456 1378.81 113.194Z" fill="url(#paint107_linear_1:9699)"/><path d="M1391.84 18.8237H1388.19V526.65H1391.84V18.8237Z" fill="url(#paint108_linear_1:9699)"/><path d="M1385.89 19.0424C1385.89 16.7807 1387.75 14.9203 1390.01 14.9203C1392.27 14.9203 1394.13 16.7807 1394.13 19.0424C1394.13 21.3041 1392.27 23.1646 1390.01 23.1646C1387.75 23.1646 1385.89 21.3041 1385.89 19.0424Z" fill="url(#paint109_linear_1:9699)"/><path d="M1353.82 99.4055H1350.18V446.03H1353.82V99.4055Z" fill="url(#paint110_linear_1:9699)"/><path d="M1347.88 99.6242C1347.88 97.3625 1349.74 95.5021 1352 95.5021C1354.26 95.5021 1356.12 97.3625 1356.12 99.6242C1356.12 101.886 1354.26 103.746 1352 103.746C1349.7 103.746 1347.88 101.886 1347.88 99.6242Z" fill="url(#paint111_linear_1:9699)"/><path d="M1422.37 34.8743H1418.72V510.598H1422.37V34.8743Z" fill="url(#paint112_linear_1:9699)"/><path d="M1416.46 35.0928C1416.46 32.8311 1418.32 30.9707 1420.58 30.9707C1422.84 30.9707 1424.7 32.7947 1424.7 35.0928C1424.7 37.3545 1422.84 39.215 1420.58 39.215C1418.32 39.215 1416.46 37.3545 1416.46 35.0928Z" fill="url(#paint113_linear_1:9699)"/><path d="M1439.33 74.345H1435.68V471.092H1439.33V74.345Z" fill="url(#paint114_linear_1:9699)"/><path d="M1433.42 74.5635C1433.42 72.3018 1435.28 70.4414 1437.54 70.4414C1439.81 70.4414 1441.67 72.3018 1441.67 74.5635C1441.67 76.8252 1439.81 78.6857 1437.54 78.6857C1435.25 78.6857 1433.42 76.8252 1433.42 74.5635Z" fill="url(#paint115_linear_1:9699)"/><defs><linearGradient id="paint0_linear_1:9699" x1="28.1444" y1="504.981" x2="28.1444" y2="36.124" gradientUnits="userSpaceOnUse"><stop stop-color="#0F1145" stop-opacity="0"/><stop offset="1" stop-color="white" stop-opacity="0.07"/></linearGradient><linearGradient id="paint1_linear_1:9699" x1="28.1541" y1="44.8702" x2="28.1541" y2="36.5471" gradientUnits="userSpaceOnUse"><stop stop-color="#0F1145" stop-opacity="0"/><stop offset="1" stop-color="white" stop-opacity="0.07"/></linearGradient><linearGradient id="paint2_linear_1:9699" x1="54.0446" y1="445.766" x2="54.0446" y2="96.4893" gradientUnits="userSpaceOnUse"><stop stop-color="#0F1145" stop-opacity="0"/><stop offset="1" stop-color="white" stop-opacity="0.07"/></linearGradient><linearGradient id="paint3_linear_1:9699" x1="54.0908" y1="104.076" x2="54.0908" y2="95.7525" gradientUnits="userSpaceOnUse"><stop stop-color="#0F1145" stop-opacity="0"/><stop offset="1" stop-color="white" stop-opacity="0.07"/></linearGradient><linearGradient id="paint4_linear_1:9699" x1="39.8907" y1="501.807" x2="39.8907" y2="39.3944" gradientUnits="userSpaceOnUse"><stop stop-color="#0F1145" stop-opacity="0"/><stop offset="1" stop-color="white" stop-opacity="0.07"/></linearGradient><linearGradient id="paint5_linear_1:9699" x1="39.9003" y1="48.0434" x2="39.9003" y2="39.7203" gradientUnits="userSpaceOnUse"><stop stop-color="#0F1145" stop-opacity="0"/><stop offset="1" stop-color="white" stop-opacity="0.07"/></linearGradient><linearGradient id="paint6_linear_1:9699" x1="111.499" y1="442.628" x2="111.499" y2="99.6855" gradientUnits="userSpaceOnUse"><stop stop-color="#0F1145" stop-opacity="0"/><stop offset="1" stop-color="white" stop-opacity="0.07"/></linearGradient><linearGradient id="paint7_linear_1:9699" x1="111.509" y1="107.212" x2="111.509" y2="98.8892" gradientUnits="userSpaceOnUse"><stop stop-color="#0F1145" stop-opacity="0"/><stop offset="1" stop-color="white" stop-opacity="0.07"/></linearGradient><linearGradient id="paint8_linear_1:9699" x1="173.113" y1="472.692" x2="173.113" y2="69.0568" gradientUnits="userSpaceOnUse"><stop stop-color="#0F1145" stop-opacity="0"/><stop offset="1" stop-color="white" stop-opacity="0.07"/></linearGradient><linearGradient id="paint9_linear_1:9699" x1="173.122" y1="77.1536" x2="173.122" y2="68.8305" gradientUnits="userSpaceOnUse"><stop stop-color="#0F1145" stop-opacity="0"/><stop offset="1" stop-color="white" stop-opacity="0.07"/></linearGradient><linearGradient id="paint10_linear_1:9699" x1="99.68" y1="509.651" x2="99.68" y2="31.366" gradientUnits="userSpaceOnUse"><stop stop-color="#0F1145" stop-opacity="0"/><stop offset="1" stop-color="white" stop-opacity="0.07"/></linearGradient><linearGradient id="paint11_linear_1:9699" x1="99.6896" y1="40.2007" x2="99.6896" y2="31.8776" gradientUnits="userSpaceOnUse"><stop stop-color="#0F1145" stop-opacity="0"/><stop offset="1" stop-color="white" stop-opacity="0.07"/></linearGradient><linearGradient id="paint12_linear_1:9699" x1="121.531" y1="476.997" x2="121.531" y2="64.6707" gradientUnits="userSpaceOnUse"><stop stop-color="#0F1145" stop-opacity="0"/><stop offset="1" stop-color="white" stop-opacity="0.07"/></linearGradient><linearGradient id="paint13_linear_1:9699" x1="121.541" y1="72.8493" x2="121.541" y2="64.5262" gradientUnits="userSpaceOnUse"><stop stop-color="#0F1145" stop-opacity="0"/><stop offset="1" stop-color="white" stop-opacity="0.07"/></linearGradient><linearGradient id="paint14_linear_1:9699" x1="216.741" y1="432.996" x2="216.741" y2="109.462" gradientUnits="userSpaceOnUse"><stop stop-color="#0F1145" stop-opacity="0"/><stop offset="1" stop-color="white" stop-opacity="0.07"/></linearGradient><linearGradient id="paint15_linear_1:9699" x1="216.788" y1="116.843" x2="216.788" y2="108.52" gradientUnits="userSpaceOnUse"><stop stop-color="#0F1145" stop-opacity="0"/><stop offset="1" stop-color="white" stop-opacity="0.07"/></linearGradient><linearGradient id="paint16_linear_1:9699" x1="198.684" y1="431.61" x2="198.684" y2="110.875" gradientUnits="userSpaceOnUse"><stop stop-color="#0F1145" stop-opacity="0"/><stop offset="1" stop-color="white" stop-opacity="0.07"/></linearGradient><linearGradient id="paint17_linear_1:9699" x1="198.694" y1="118.229" x2="198.694" y2="109.906" gradientUnits="userSpaceOnUse"><stop stop-color="#0F1145" stop-opacity="0"/><stop offset="1" stop-color="white" stop-opacity="0.07"/></linearGradient><linearGradient id="paint18_linear_1:9699" x1="294.551" y1="470.211" x2="294.551" y2="71.5482" gradientUnits="userSpaceOnUse"><stop stop-color="#0F1145" stop-opacity="0"/><stop offset="1" stop-color="white" stop-opacity="0.07"/></linearGradient><linearGradient id="paint19_linear_1:9699" x1="294.561" y1="79.6348" x2="294.561" y2="71.3117" gradientUnits="userSpaceOnUse"><stop stop-color="#0F1145" stop-opacity="0"/><stop offset="1" stop-color="white" stop-opacity="0.07"/></linearGradient><linearGradient id="paint20_linear_1:9699" x1="306.662" y1="445.912" x2="306.662" y2="96.2669" gradientUnits="userSpaceOnUse"><stop stop-color="#0F1145" stop-opacity="0"/><stop offset="1" stop-color="white" stop-opacity="0.07"/></linearGradient><linearGradient id="paint21_linear_1:9699" x1="306.709" y1="103.893" x2="306.709" y2="95.57" gradientUnits="userSpaceOnUse"><stop stop-color="#0F1145" stop-opacity="0"/><stop offset="1" stop-color="white" stop-opacity="0.07"/></linearGradient><linearGradient id="paint22_linear_1:9699" x1="254.716" y1="479.916" x2="254.716" y2="61.6601" gradientUnits="userSpaceOnUse"><stop stop-color="#0F1145" stop-opacity="0"/><stop offset="1" stop-color="white" stop-opacity="0.07"/></linearGradient><linearGradient id="paint23_linear_1:9699" x1="254.726" y1="69.9309" x2="254.726" y2="61.6077" gradientUnits="userSpaceOnUse"><stop stop-color="#0F1145" stop-opacity="0"/><stop offset="1" stop-color="white" stop-opacity="0.07"/></linearGradient><linearGradient id="paint24_linear_1:9699" x1="366.452" y1="541.612" x2="366.452" y2="-1.15904" gradientUnits="userSpaceOnUse"><stop stop-color="#0F1145" stop-opacity="0"/><stop offset="1" stop-color="white" stop-opacity="0.07"/></linearGradient><linearGradient id="paint25_linear_1:9699" x1="366.461" y1="8.24493" x2="366.461" y2="-0.0781923" gradientUnits="userSpaceOnUse"><stop stop-color="#0F1145" stop-opacity="0"/><stop offset="1" stop-color="white" stop-opacity="0.07"/></linearGradient><linearGradient id="paint26_linear_1:9699" x1="379.183" y1="511.402" x2="379.183" y2="29.5819" gradientUnits="userSpaceOnUse"><stop stop-color="#0F1145" stop-opacity="0"/><stop offset="1" stop-color="white" stop-opacity="0.07"/></linearGradient><linearGradient id="paint27_linear_1:9699" x1="379.193" y1="38.4498" x2="379.193" y2="30.1266" gradientUnits="userSpaceOnUse"><stop stop-color="#0F1145" stop-opacity="0"/><stop offset="1" stop-color="white" stop-opacity="0.07"/></linearGradient><linearGradient id="paint28_linear_1:9699" x1="410.774" y1="527.018" x2="410.774" y2="13.7095" gradientUnits="userSpaceOnUse"><stop stop-color="#0F1145" stop-opacity="0"/><stop offset="1" stop-color="white" stop-opacity="0.07"/></linearGradient><linearGradient id="paint29_linear_1:9699" x1="410.784" y1="22.8366" x2="410.784" y2="14.5135" gradientUnits="userSpaceOnUse"><stop stop-color="#0F1145" stop-opacity="0"/><stop offset="1" stop-color="white" stop-opacity="0.07"/></linearGradient><linearGradient id="paint30_linear_1:9699" x1="401.399" y1="513.445" x2="401.399" y2="27.5368" gradientUnits="userSpaceOnUse"><stop stop-color="#0F1145" stop-opacity="0"/><stop offset="1" stop-color="white" stop-opacity="0.07"/></linearGradient><linearGradient id="paint31_linear_1:9699" x1="401.408" y1="36.4067" x2="401.408" y2="28.0836" gradientUnits="userSpaceOnUse"><stop stop-color="#0F1145" stop-opacity="0"/><stop offset="1" stop-color="white" stop-opacity="0.07"/></linearGradient><linearGradient id="paint32_linear_1:9699" x1="383.488" y1="468.167" x2="383.488" y2="73.6658" gradientUnits="userSpaceOnUse"><stop stop-color="#0F1145" stop-opacity="0"/><stop offset="1" stop-color="white" stop-opacity="0.07"/></linearGradient><linearGradient id="paint33_linear_1:9699" x1="383.497" y1="81.6769" x2="383.497" y2="73.3538" gradientUnits="userSpaceOnUse"><stop stop-color="#0F1145" stop-opacity="0"/><stop offset="1" stop-color="white" stop-opacity="0.07"/></linearGradient><linearGradient id="paint34_linear_1:9699" x1="415.151" y1="506.367" x2="415.151" y2="34.7111" gradientUnits="userSpaceOnUse"><stop stop-color="#0F1145" stop-opacity="0"/><stop offset="1" stop-color="white" stop-opacity="0.07"/></linearGradient><linearGradient id="paint35_linear_1:9699" x1="415.161" y1="43.4835" x2="415.161" y2="35.1603" gradientUnits="userSpaceOnUse"><stop stop-color="#0F1145" stop-opacity="0"/><stop offset="1" stop-color="white" stop-opacity="0.07"/></linearGradient><linearGradient id="paint36_linear_1:9699" x1="423.396" y1="440.767" x2="423.396" y2="101.545" gradientUnits="userSpaceOnUse"><stop stop-color="#0F1145" stop-opacity="0"/><stop offset="1" stop-color="white" stop-opacity="0.07"/></linearGradient><linearGradient id="paint37_linear_1:9699" x1="423.405" y1="109.073" x2="423.405" y2="100.75" gradientUnits="userSpaceOnUse"><stop stop-color="#0F1145" stop-opacity="0"/><stop offset="1" stop-color="white" stop-opacity="0.07"/></linearGradient><linearGradient id="paint38_linear_1:9699" x1="500.768" y1="482.397" x2="500.768" y2="59.1326" gradientUnits="userSpaceOnUse"><stop stop-color="#0F1145" stop-opacity="0"/><stop offset="1" stop-color="white" stop-opacity="0.07"/></linearGradient><linearGradient id="paint39_linear_1:9699" x1="500.778" y1="67.4505" x2="500.778" y2="59.1274" gradientUnits="userSpaceOnUse"><stop stop-color="#0F1145" stop-opacity="0"/><stop offset="1" stop-color="white" stop-opacity="0.07"/></linearGradient><linearGradient id="paint40_linear_1:9699" x1="524.042" y1="433.58" x2="524.042" y2="108.868" gradientUnits="userSpaceOnUse"><stop stop-color="#0F1145" stop-opacity="0"/><stop offset="1" stop-color="white" stop-opacity="0.07"/></linearGradient><linearGradient id="paint41_linear_1:9699" x1="524.051" y1="116.26" x2="524.051" y2="107.937" gradientUnits="userSpaceOnUse"><stop stop-color="#0F1145" stop-opacity="0"/><stop offset="1" stop-color="white" stop-opacity="0.07"/></linearGradient><linearGradient id="paint42_linear_1:9699" x1="554.538" y1="440.257" x2="554.538" y2="102.102" gradientUnits="userSpaceOnUse"><stop stop-color="#0F1145" stop-opacity="0"/><stop offset="1" stop-color="white" stop-opacity="0.07"/></linearGradient><linearGradient id="paint43_linear_1:9699" x1="554.548" y1="109.584" x2="554.548" y2="101.261" gradientUnits="userSpaceOnUse"><stop stop-color="#0F1145" stop-opacity="0"/><stop offset="1" stop-color="white" stop-opacity="0.07"/></linearGradient><linearGradient id="paint44_linear_1:9699" x1="603.457" y1="494.546" x2="603.457" y2="46.7545" gradientUnits="userSpaceOnUse"><stop stop-color="#0F1145" stop-opacity="0"/><stop offset="1" stop-color="white" stop-opacity="0.07"/></linearGradient><linearGradient id="paint45_linear_1:9699" x1="603.466" y1="55.3027" x2="603.466" y2="46.9795" gradientUnits="userSpaceOnUse"><stop stop-color="#0F1145" stop-opacity="0"/><stop offset="1" stop-color="white" stop-opacity="0.07"/></linearGradient><linearGradient id="paint46_linear_1:9699" x1="649.566" y1="540.152" x2="649.566" y2="0.290652" gradientUnits="userSpaceOnUse"><stop stop-color="#0F1145" stop-opacity="0"/><stop offset="1" stop-color="white" stop-opacity="0.07"/></linearGradient><linearGradient id="paint47_linear_1:9699" x1="649.576" y1="9.7038" x2="649.576" y2="1.38067" gradientUnits="userSpaceOnUse"><stop stop-color="#0F1145" stop-opacity="0"/><stop offset="1" stop-color="white" stop-opacity="0.07"/></linearGradient><linearGradient id="paint48_linear_1:9699" x1="660.729" y1="476.34" x2="660.729" y2="65.3028" gradientUnits="userSpaceOnUse"><stop stop-color="#0F1145" stop-opacity="0"/><stop offset="1" stop-color="white" stop-opacity="0.07"/></linearGradient><linearGradient id="paint49_linear_1:9699" x1="660.738" y1="73.5057" x2="660.738" y2="65.1825" gradientUnits="userSpaceOnUse"><stop stop-color="#0F1145" stop-opacity="0"/><stop offset="1" stop-color="white" stop-opacity="0.07"/></linearGradient><linearGradient id="paint50_linear_1:9699" x1="670.87" y1="508.812" x2="670.87" y2="32.2577" gradientUnits="userSpaceOnUse"><stop stop-color="#0F1145" stop-opacity="0"/><stop offset="1" stop-color="white" stop-opacity="0.07"/></linearGradient><linearGradient id="paint51_linear_1:9699" x1="670.916" y1="41.0396" x2="670.916" y2="32.7165" gradientUnits="userSpaceOnUse"><stop stop-color="#0F1145" stop-opacity="0"/><stop offset="1" stop-color="white" stop-opacity="0.07"/></linearGradient><linearGradient id="paint52_linear_1:9699" x1="677.655" y1="449.087" x2="677.655" y2="93.1073" gradientUnits="userSpaceOnUse"><stop stop-color="#0F1145" stop-opacity="0"/><stop offset="1" stop-color="white" stop-opacity="0.07"/></linearGradient><linearGradient id="paint53_linear_1:9699" x1="677.665" y1="100.756" x2="677.665" y2="92.4333" gradientUnits="userSpaceOnUse"><stop stop-color="#0F1145" stop-opacity="0"/><stop offset="1" stop-color="white" stop-opacity="0.07"/></linearGradient><linearGradient id="paint54_linear_1:9699" x1="736.277" y1="533.877" x2="736.277" y2="6.72154" gradientUnits="userSpaceOnUse"><stop stop-color="#0F1145" stop-opacity="0"/><stop offset="1" stop-color="white" stop-opacity="0.07"/></linearGradient><linearGradient id="paint55_linear_1:9699" x1="736.287" y1="15.9789" x2="736.287" y2="7.65582" gradientUnits="userSpaceOnUse"><stop stop-color="#0F1145" stop-opacity="0"/><stop offset="1" stop-color="white" stop-opacity="0.07"/></linearGradient><linearGradient id="paint56_linear_1:9699" x1="748.096" y1="461.71" x2="748.096" y2="80.2453" gradientUnits="userSpaceOnUse"><stop stop-color="#0F1145" stop-opacity="0"/><stop offset="1" stop-color="white" stop-opacity="0.07"/></linearGradient><linearGradient id="paint57_linear_1:9699" x1="748.106" y1="88.1338" x2="748.106" y2="79.8107" gradientUnits="userSpaceOnUse"><stop stop-color="#0F1145" stop-opacity="0"/><stop offset="1" stop-color="white" stop-opacity="0.07"/></linearGradient><linearGradient id="paint58_linear_1:9699" x1="794.315" y1="435.951" x2="794.315" y2="106.488" gradientUnits="userSpaceOnUse"><stop stop-color="#0F1145" stop-opacity="0"/><stop offset="1" stop-color="white" stop-opacity="0.07"/></linearGradient><linearGradient id="paint59_linear_1:9699" x1="794.325" y1="113.888" x2="794.325" y2="105.565" gradientUnits="userSpaceOnUse"><stop stop-color="#0F1145" stop-opacity="0"/><stop offset="1" stop-color="white" stop-opacity="0.07"/></linearGradient><linearGradient id="paint60_linear_1:9699" x1="749.337" y1="540.116" x2="749.337" y2="0.32772" gradientUnits="userSpaceOnUse"><stop stop-color="#0F1145" stop-opacity="0"/><stop offset="1" stop-color="white" stop-opacity="0.07"/></linearGradient><linearGradient id="paint61_linear_1:9699" x1="749.346" y1="9.7403" x2="749.346" y2="1.41717" gradientUnits="userSpaceOnUse"><stop stop-color="#0F1145" stop-opacity="0"/><stop offset="1" stop-color="white" stop-opacity="0.07"/></linearGradient><linearGradient id="paint62_linear_1:9699" x1="808.907" y1="486.337" x2="808.907" y2="55.1547" gradientUnits="userSpaceOnUse"><stop stop-color="#0F1145" stop-opacity="0"/><stop offset="1" stop-color="white" stop-opacity="0.07"/></linearGradient><linearGradient id="paint63_linear_1:9699" x1="808.917" y1="63.5104" x2="808.917" y2="55.1873" gradientUnits="userSpaceOnUse"><stop stop-color="#0F1145" stop-opacity="0"/><stop offset="1" stop-color="white" stop-opacity="0.07"/></linearGradient><linearGradient id="paint64_linear_1:9699" x1="864.1" y1="492.795" x2="864.1" y2="48.5754" gradientUnits="userSpaceOnUse"><stop stop-color="#0F1145" stop-opacity="0"/><stop offset="1" stop-color="white" stop-opacity="0.07"/></linearGradient><linearGradient id="paint65_linear_1:9699" x1="864.11" y1="57.0535" x2="864.11" y2="48.7304" gradientUnits="userSpaceOnUse"><stop stop-color="#0F1145" stop-opacity="0"/><stop offset="1" stop-color="white" stop-opacity="0.07"/></linearGradient><linearGradient id="paint66_linear_1:9699" x1="895.217" y1="514.321" x2="895.217" y2="26.5711" gradientUnits="userSpaceOnUse"><stop stop-color="#0F1145" stop-opacity="0"/><stop offset="1" stop-color="white" stop-opacity="0.07"/></linearGradient><linearGradient id="paint67_linear_1:9699" x1="895.263" y1="35.4947" x2="895.263" y2="27.1716" gradientUnits="userSpaceOnUse"><stop stop-color="#0F1145" stop-opacity="0"/><stop offset="1" stop-color="white" stop-opacity="0.07"/></linearGradient><linearGradient id="paint68_linear_1:9699" x1="824.593" y1="526.179" x2="824.593" y2="14.4905" gradientUnits="userSpaceOnUse"><stop stop-color="#0F1145" stop-opacity="0"/><stop offset="1" stop-color="white" stop-opacity="0.07"/></linearGradient><linearGradient id="paint69_linear_1:9699" x1="824.603" y1="23.639" x2="824.603" y2="15.3159" gradientUnits="userSpaceOnUse"><stop stop-color="#0F1145" stop-opacity="0"/><stop offset="1" stop-color="white" stop-opacity="0.07"/></linearGradient><linearGradient id="paint70_linear_1:9699" x1="896.639" y1="434.309" x2="896.639" y2="108.087" gradientUnits="userSpaceOnUse"><stop stop-color="#0F1145" stop-opacity="0"/><stop offset="1" stop-color="white" stop-opacity="0.07"/></linearGradient><linearGradient id="paint71_linear_1:9699" x1="896.685" y1="115.493" x2="896.685" y2="107.17" gradientUnits="userSpaceOnUse"><stop stop-color="#0F1145" stop-opacity="0"/><stop offset="1" stop-color="white" stop-opacity="0.07"/></linearGradient><linearGradient id="paint72_linear_1:9699" x1="885.769" y1="463.79" x2="885.769" y2="78.0903" gradientUnits="userSpaceOnUse"><stop stop-color="#0F1145" stop-opacity="0"/><stop offset="1" stop-color="white" stop-opacity="0.07"/></linearGradient><linearGradient id="paint73_linear_1:9699" x1="885.815" y1="86.0552" x2="885.815" y2="77.7321" gradientUnits="userSpaceOnUse"><stop stop-color="#0F1145" stop-opacity="0"/><stop offset="1" stop-color="white" stop-opacity="0.07"/></linearGradient><linearGradient id="paint74_linear_1:9699" x1="959.383" y1="527.711" x2="959.383" y2="12.9296" gradientUnits="userSpaceOnUse"><stop stop-color="#0F1145" stop-opacity="0"/><stop offset="1" stop-color="white" stop-opacity="0.07"/></linearGradient><linearGradient id="paint75_linear_1:9699" x1="959.43" y1="22.1072" x2="959.43" y2="13.7841" gradientUnits="userSpaceOnUse"><stop stop-color="#0F1145" stop-opacity="0"/><stop offset="1" stop-color="white" stop-opacity="0.07"/></linearGradient><linearGradient id="paint76_linear_1:9699" x1="923.196" y1="430.151" x2="923.196" y2="112.399" gradientUnits="userSpaceOnUse"><stop stop-color="#0F1145" stop-opacity="0"/><stop offset="1" stop-color="white" stop-opacity="0.07"/></linearGradient><linearGradient id="paint77_linear_1:9699" x1="923.206" y1="119.689" x2="923.206" y2="111.366" gradientUnits="userSpaceOnUse"><stop stop-color="#0F1145" stop-opacity="0"/><stop offset="1" stop-color="white" stop-opacity="0.07"/></linearGradient><linearGradient id="paint78_linear_1:9699" x1="987.801" y1="466.088" x2="987.801" y2="75.748" gradientUnits="userSpaceOnUse"><stop stop-color="#0F1145" stop-opacity="0"/><stop offset="1" stop-color="white" stop-opacity="0.07"/></linearGradient><linearGradient id="paint79_linear_1:9699" x1="987.81" y1="83.7565" x2="987.81" y2="75.4334" gradientUnits="userSpaceOnUse"><stop stop-color="#0F1145" stop-opacity="0"/><stop offset="1" stop-color="white" stop-opacity="0.07"/></linearGradient><linearGradient id="paint80_linear_1:9699" x1="994.878" y1="459.229" x2="994.878" y2="82.7735" gradientUnits="userSpaceOnUse"><stop stop-color="#0F1145" stop-opacity="0"/><stop offset="1" stop-color="white" stop-opacity="0.07"/></linearGradient><linearGradient id="paint81_linear_1:9699" x1="994.924" y1="90.615" x2="994.924" y2="82.2919" gradientUnits="userSpaceOnUse"><stop stop-color="#0F1145" stop-opacity="0"/><stop offset="1" stop-color="white" stop-opacity="0.07"/></linearGradient><linearGradient id="paint82_linear_1:9699" x1="1070.94" y1="509.578" x2="1070.94" y2="31.4403" gradientUnits="userSpaceOnUse"><stop stop-color="#0F1145" stop-opacity="0"/><stop offset="1" stop-color="white" stop-opacity="0.07"/></linearGradient><linearGradient id="paint83_linear_1:9699" x1="1070.95" y1="40.2737" x2="1070.95" y2="31.9506" gradientUnits="userSpaceOnUse"><stop stop-color="#0F1145" stop-opacity="0"/><stop offset="1" stop-color="white" stop-opacity="0.07"/></linearGradient><linearGradient id="paint84_linear_1:9699" x1="1025.41" y1="538.182" x2="1025.41" y2="2.33471" gradientUnits="userSpaceOnUse"><stop stop-color="#0F1145" stop-opacity="0"/><stop offset="1" stop-color="white" stop-opacity="0.07"/></linearGradient><linearGradient id="paint85_linear_1:9699" x1="1025.42" y1="11.6738" x2="1025.42" y2="3.35064" gradientUnits="userSpaceOnUse"><stop stop-color="#0F1145" stop-opacity="0"/><stop offset="1" stop-color="white" stop-opacity="0.07"/></linearGradient><linearGradient id="paint86_linear_1:9699" x1="1067.29" y1="530.739" x2="1067.29" y2="9.88117" gradientUnits="userSpaceOnUse"><stop stop-color="#0F1145" stop-opacity="0"/><stop offset="1" stop-color="white" stop-opacity="0.07"/></linearGradient><linearGradient id="paint87_linear_1:9699" x1="1067.3" y1="19.1157" x2="1067.3" y2="10.7925" gradientUnits="userSpaceOnUse"><stop stop-color="#0F1145" stop-opacity="0"/><stop offset="1" stop-color="white" stop-opacity="0.07"/></linearGradient><linearGradient id="paint88_linear_1:9699" x1="1171.58" y1="499.107" x2="1171.58" y2="42.1081" gradientUnits="userSpaceOnUse"><stop stop-color="#0F1145" stop-opacity="0"/><stop offset="1" stop-color="white" stop-opacity="0.07"/></linearGradient><linearGradient id="paint89_linear_1:9699" x1="1171.59" y1="50.7427" x2="1171.59" y2="42.4196" gradientUnits="userSpaceOnUse"><stop stop-color="#0F1145" stop-opacity="0"/><stop offset="1" stop-color="white" stop-opacity="0.07"/></linearGradient><linearGradient id="paint90_linear_1:9699" x1="1167.13" y1="463.863" x2="1167.13" y2="78.0158" gradientUnits="userSpaceOnUse"><stop stop-color="#0F1145" stop-opacity="0"/><stop offset="1" stop-color="white" stop-opacity="0.07"/></linearGradient><linearGradient id="paint91_linear_1:9699" x1="1167.18" y1="85.9821" x2="1167.18" y2="77.659" gradientUnits="userSpaceOnUse"><stop stop-color="#0F1145" stop-opacity="0"/><stop offset="1" stop-color="white" stop-opacity="0.07"/></linearGradient><linearGradient id="paint92_linear_1:9699" x1="1224.33" y1="456.31" x2="1224.33" y2="85.7095" gradientUnits="userSpaceOnUse"><stop stop-color="#0F1145" stop-opacity="0"/><stop offset="1" stop-color="white" stop-opacity="0.07"/></linearGradient><linearGradient id="paint93_linear_1:9699" x1="1224.34" y1="93.5326" x2="1224.34" y2="85.2095" gradientUnits="userSpaceOnUse"><stop stop-color="#0F1145" stop-opacity="0"/><stop offset="1" stop-color="white" stop-opacity="0.07"/></linearGradient><linearGradient id="paint94_linear_1:9699" x1="1170.63" y1="499.909" x2="1170.63" y2="41.2905" gradientUnits="userSpaceOnUse"><stop stop-color="#0F1145" stop-opacity="0"/><stop offset="1" stop-color="white" stop-opacity="0.07"/></linearGradient><linearGradient id="paint95_linear_1:9699" x1="1170.64" y1="49.9404" x2="1170.64" y2="41.6172" gradientUnits="userSpaceOnUse"><stop stop-color="#0F1145" stop-opacity="0"/><stop offset="1" stop-color="white" stop-opacity="0.07"/></linearGradient><linearGradient id="paint96_linear_1:9699" x1="1191.79" y1="488.417" x2="1191.79" y2="52.9629" gradientUnits="userSpaceOnUse"><stop stop-color="#0F1145" stop-opacity="0"/><stop offset="1" stop-color="white" stop-opacity="0.07"/></linearGradient><linearGradient id="paint97_linear_1:9699" x1="1191.8" y1="61.3953" x2="1191.8" y2="53.0722" gradientUnits="userSpaceOnUse"><stop stop-color="#0F1145" stop-opacity="0"/><stop offset="1" stop-color="white" stop-opacity="0.07"/></linearGradient><linearGradient id="paint98_linear_1:9699" x1="1247.9" y1="464.191" x2="1247.9" y2="77.7178" gradientUnits="userSpaceOnUse"><stop stop-color="#0F1145" stop-opacity="0"/><stop offset="1" stop-color="white" stop-opacity="0.07"/></linearGradient><linearGradient id="paint99_linear_1:9699" x1="1247.91" y1="85.6535" x2="1247.91" y2="77.3304" gradientUnits="userSpaceOnUse"><stop stop-color="#0F1145" stop-opacity="0"/><stop offset="1" stop-color="white" stop-opacity="0.07"/></linearGradient><linearGradient id="paint100_linear_1:9699" x1="1227.58" y1="468.934" x2="1227.58" y2="72.8485" gradientUnits="userSpaceOnUse"><stop stop-color="#0F1145" stop-opacity="0"/><stop offset="1" stop-color="white" stop-opacity="0.07"/></linearGradient><linearGradient id="paint101_linear_1:9699" x1="1227.59" y1="80.9111" x2="1227.59" y2="72.5879" gradientUnits="userSpaceOnUse"><stop stop-color="#0F1145" stop-opacity="0"/><stop offset="1" stop-color="white" stop-opacity="0.07"/></linearGradient><linearGradient id="paint102_linear_1:9699" x1="1251.58" y1="537.745" x2="1251.58" y2="2.74452" gradientUnits="userSpaceOnUse"><stop stop-color="#0F1145" stop-opacity="0"/><stop offset="1" stop-color="white" stop-opacity="0.07"/></linearGradient><linearGradient id="paint103_linear_1:9699" x1="1251.59" y1="12.112" x2="1251.59" y2="3.78887" gradientUnits="userSpaceOnUse"><stop stop-color="#0F1145" stop-opacity="0"/><stop offset="1" stop-color="white" stop-opacity="0.07"/></linearGradient><linearGradient id="paint104_linear_1:9699" x1="1311.04" y1="441.643" x2="1311.04" y2="100.689" gradientUnits="userSpaceOnUse"><stop stop-color="#0F1145" stop-opacity="0"/><stop offset="1" stop-color="white" stop-opacity="0.07"/></linearGradient><linearGradient id="paint105_linear_1:9699" x1="1311.05" y1="108.197" x2="1311.05" y2="99.8742" gradientUnits="userSpaceOnUse"><stop stop-color="#0F1145" stop-opacity="0"/><stop offset="1" stop-color="white" stop-opacity="0.07"/></linearGradient><linearGradient id="paint106_linear_1:9699" x1="1382.91" y1="432.522" x2="1382.91" y2="109.945" gradientUnits="userSpaceOnUse"><stop stop-color="#0F1145" stop-opacity="0"/><stop offset="1" stop-color="white" stop-opacity="0.07"/></linearGradient><linearGradient id="paint107_linear_1:9699" x1="1382.95" y1="117.317" x2="1382.95" y2="108.994" gradientUnits="userSpaceOnUse"><stop stop-color="#0F1145" stop-opacity="0"/><stop offset="1" stop-color="white" stop-opacity="0.07"/></linearGradient><linearGradient id="paint108_linear_1:9699" x1="1390.02" y1="526.69" x2="1390.02" y2="14.0073" gradientUnits="userSpaceOnUse"><stop stop-color="#0F1145" stop-opacity="0"/><stop offset="1" stop-color="white" stop-opacity="0.07"/></linearGradient><linearGradient id="paint109_linear_1:9699" x1="1390.03" y1="23.1652" x2="1390.03" y2="14.8421" gradientUnits="userSpaceOnUse"><stop stop-color="#0F1145" stop-opacity="0"/><stop offset="1" stop-color="white" stop-opacity="0.07"/></linearGradient><linearGradient id="paint110_linear_1:9699" x1="1352.01" y1="446.058" x2="1352.01" y2="96.118" gradientUnits="userSpaceOnUse"><stop stop-color="#0F1145" stop-opacity="0"/><stop offset="1" stop-color="white" stop-opacity="0.07"/></linearGradient><linearGradient id="paint111_linear_1:9699" x1="1352.02" y1="103.747" x2="1352.02" y2="95.4239" gradientUnits="userSpaceOnUse"><stop stop-color="#0F1145" stop-opacity="0"/><stop offset="1" stop-color="white" stop-opacity="0.07"/></linearGradient><linearGradient id="paint112_linear_1:9699" x1="1420.55" y1="510.636" x2="1420.55" y2="30.3623" gradientUnits="userSpaceOnUse"><stop stop-color="#0F1145" stop-opacity="0"/><stop offset="1" stop-color="white" stop-opacity="0.07"/></linearGradient><linearGradient id="paint113_linear_1:9699" x1="1420.6" y1="39.2156" x2="1420.6" y2="30.8925" gradientUnits="userSpaceOnUse"><stop stop-color="#0F1145" stop-opacity="0"/><stop offset="1" stop-color="white" stop-opacity="0.07"/></linearGradient><linearGradient id="paint114_linear_1:9699" x1="1437.52" y1="471.123" x2="1437.52" y2="70.5821" gradientUnits="userSpaceOnUse"><stop stop-color="#0F1145" stop-opacity="0"/><stop offset="1" stop-color="white" stop-opacity="0.07"/></linearGradient><linearGradient id="paint115_linear_1:9699" x1="1437.56" y1="78.6863" x2="1437.56" y2="70.3632" gradientUnits="userSpaceOnUse"><stop stop-color="#0F1145" stop-opacity="0"/><stop offset="1" stop-color="white" stop-opacity="0.07"/></linearGradient></defs></svg>